<mxGraphModel dx="0" dy="0" grid="1" gridSize="10" guides="1" tooltips="1" connect="1" arrows="1" fold="1" page="0" pageScale="1" background="none" math="0" shadow="0">
  <root>
    <mxCell id="0" />
    <mxCell id="1" parent="0" />
    <mxCell id="node0" parent="1" vertex="1" value="&lt;p style=&quot;margin:0px;margin-top:4px;text-align:center;&quot;&gt;&lt;b&gt;AddBookController&lt;/b&gt;&lt;/p&gt;&lt;hr size=&quot;1&quot;/&gt;&lt;p style=&quot;margin:0 0 0 4px;line-height:1.6;&quot;&gt;+ AddBookController(): &lt;/p&gt;&lt;hr size=&quot;1&quot;/&gt;&lt;p style=&quot;margin:0 0 0 4px;line-height:1.6;&quot;&gt;+ saveBook(ActionEvent): void&lt;br/&gt;+ handleUploadImage(ActionEvent): void&lt;/p&gt;" style="verticalAlign=top;align=left;overflow=fill;fontSize=14;fontFamily=Helvetica;html=1;rounded=0;shadow=0;comic=0;labelBackgroundColor=none;strokeWidth=1;">
      <mxGeometry x="1402" y="91" width="287" height="122" as="geometry" />
    </mxCell>
    <mxCell id="node28" parent="1" vertex="1" value="&lt;p style=&quot;margin:0px;margin-top:4px;text-align:center;&quot;&gt;&lt;b&gt;BaseController&lt;/b&gt;&lt;/p&gt;&lt;hr size=&quot;1&quot;/&gt;&lt;p style=&quot;margin:0 0 0 4px;line-height:1.6;&quot;&gt;+ BaseController(): &lt;/p&gt;&lt;hr size=&quot;1&quot;/&gt;&lt;p style=&quot;margin:0 0 0 4px;line-height:1.6;&quot;&gt;- mainGUIController: MainGUI&lt;/p&gt;&lt;hr size=&quot;1&quot;/&gt;&lt;p style=&quot;margin:0 0 0 4px;line-height:1.6;&quot;&gt;# sendNotification(int, int, String): void&lt;br/&gt;# returnDetailBook(Book, boolean): void&lt;br/&gt;# updateNotifications(): void&lt;/p&gt;&lt;hr size=&quot;1&quot;/&gt;&lt;p style=&quot;margin:0 0 0 4px;line-height:1.6;&quot;&gt; mainGUIController: MainGUI&lt;/p&gt;" style="verticalAlign=top;align=left;overflow=fill;fontSize=14;fontFamily=Helvetica;html=1;rounded=0;shadow=0;comic=0;labelBackgroundColor=none;strokeWidth=1;">
      <mxGeometry x="138" y="943" width="282" height="195" as="geometry" />
    </mxCell>
    <mxCell id="node6" parent="1" vertex="1" value="&lt;p style=&quot;margin:0px;margin-top:4px;text-align:center;&quot;&gt;&lt;b&gt;Book&lt;/b&gt;&lt;/p&gt;&lt;hr size=&quot;1&quot;/&gt;&lt;p style=&quot;margin:0 0 0 4px;line-height:1.6;&quot;&gt;+ Book(String, String, String, String, String, String, String, String, String, String, String, String): &lt;br/&gt;+ Book(): &lt;br/&gt;+ Book(String, String, String, String, String, String, String, String, String, String, String, String, int, int): &lt;/p&gt;&lt;hr size=&quot;1&quot;/&gt;&lt;p style=&quot;margin:0 0 0 4px;line-height:1.6;&quot;&gt;- title: String&lt;br/&gt;- category: String&lt;br/&gt;- authors: String&lt;br/&gt;- rating: int&lt;br/&gt;- numView: int&lt;br/&gt;- numPage: String&lt;br/&gt;- price: String&lt;br/&gt;- description: String&lt;br/&gt;- buyLink: String&lt;br/&gt;- publishedDate: String&lt;br/&gt;- ISBN: String&lt;br/&gt;- type: String&lt;br/&gt;- language: String&lt;br/&gt;- publisher: String&lt;br/&gt;- thumbnail: String&lt;br/&gt;- avail: int&lt;/p&gt;&lt;hr size=&quot;1&quot;/&gt;&lt;p style=&quot;margin:0 0 0 4px;line-height:1.6;&quot;&gt;+ toString(): String&lt;/p&gt;&lt;hr size=&quot;1&quot;/&gt;&lt;p style=&quot;margin:0 0 0 4px;line-height:1.6;&quot;&gt; description: String&lt;br/&gt; numView: int&lt;br/&gt; type: String&lt;br/&gt; language: String&lt;br/&gt; publishedDate: String&lt;br/&gt; authors: String&lt;br/&gt; buyLink: String&lt;br/&gt; avail: int&lt;br/&gt; thumbnail: String&lt;br/&gt; title: String&lt;br/&gt; numPage: String&lt;br/&gt; price: String&lt;br/&gt; rating: int&lt;br/&gt; category: String&lt;br/&gt; publisher: String&lt;br/&gt; ISBN: String&lt;/p&gt;" style="verticalAlign=top;align=left;overflow=fill;fontSize=14;fontFamily=Helvetica;html=1;rounded=0;shadow=0;comic=0;labelBackgroundColor=none;strokeWidth=1;">
      <mxGeometry x="1430" y="2378" width="376" height="915" as="geometry" />
    </mxCell>
    <mxCell id="node16" parent="1" vertex="1" value="&lt;p style=&quot;margin:0px;margin-top:4px;text-align:center;&quot;&gt;&lt;b&gt;BookIssue&lt;/b&gt;&lt;/p&gt;&lt;hr size=&quot;1&quot;/&gt;&lt;p style=&quot;margin:0 0 0 4px;line-height:1.6;&quot;&gt;+ BookIssue(): &lt;br/&gt;+ BookIssue(int, String, String, String, MyDateTime, MyDateTime, String): &lt;/p&gt;&lt;hr size=&quot;1&quot;/&gt;&lt;p style=&quot;margin:0 0 0 4px;line-height:1.6;&quot;&gt;- bookTitle: String&lt;br/&gt;- userId: int&lt;br/&gt;- bookAuthor: String&lt;br/&gt;- issueDate: MyDateTime&lt;br/&gt;- username: String&lt;br/&gt;- returnDate: MyDateTime&lt;br/&gt;- status: String&lt;/p&gt;&lt;hr size=&quot;1&quot;/&gt;&lt;p style=&quot;margin:0 0 0 4px;line-height:1.6;&quot;&gt;+ displayIssueInfo(): void&lt;/p&gt;&lt;hr size=&quot;1&quot;/&gt;&lt;p style=&quot;margin:0 0 0 4px;line-height:1.6;&quot;&gt; returnDate: MyDateTime&lt;br/&gt; userId: int&lt;br/&gt; bookTitle: String&lt;br/&gt; bookAuthor: String&lt;br/&gt; issueDate: MyDateTime&lt;br/&gt; status: String&lt;br/&gt; username: String&lt;/p&gt;" style="verticalAlign=top;align=left;overflow=fill;fontSize=14;fontFamily=Helvetica;html=1;rounded=0;shadow=0;comic=0;labelBackgroundColor=none;strokeWidth=1;">
      <mxGeometry x="1558" y="413" width="424" height="459" as="geometry" />
    </mxCell>
    <mxCell id="node15" parent="1" vertex="1" value="&lt;p style=&quot;margin:0px;margin-top:4px;text-align:center;&quot;&gt;&lt;b&gt;BookIssueController&lt;/b&gt;&lt;/p&gt;&lt;hr size=&quot;1&quot;/&gt;&lt;p style=&quot;margin:0 0 0 4px;line-height:1.6;&quot;&gt;+ BookIssueController(): &lt;/p&gt;&lt;hr size=&quot;1&quot;/&gt;&lt;p style=&quot;margin:0 0 0 4px;line-height:1.6;&quot;&gt;- displayPage(int): void&lt;br/&gt;- getRatingStars(int, int): String&lt;br/&gt;- update(): void&lt;br/&gt;+ createBookIssuePaneUser(BookIssue): Pane&lt;br/&gt;- resetCategoryButtonStyles(): void&lt;br/&gt;- resetCategoryButtonStylesUser(): void&lt;br/&gt;- handleCategorySelectionUser(ArrayList&amp;lt;BookIssue&amp;gt;, Button, int): void&lt;br/&gt;- initForUser(): void&lt;br/&gt;- displayTopChoice(): void&lt;br/&gt;- paginateBookIssueList(ArrayList&amp;lt;BookIssue&amp;gt;): ArrayList&amp;lt;ArrayList&amp;lt;BookIssue&amp;gt;&amp;gt;&lt;br/&gt;- initForAdmin(): void&lt;br/&gt;- resetSortOrderExcept(String): void&lt;br/&gt;- addNavigationButtonsForUser(): void&lt;br/&gt;+ createBookIssuePane(BookIssue): Pane&lt;br/&gt;- addNavigationButtonsForAdmin(): void&lt;br/&gt;- navigatePage(int): void&lt;br/&gt;+ initialize(): void&lt;br/&gt;- createBookPane1(): Pane&lt;br/&gt;- createBookPane2(): Pane&lt;br/&gt;+ exportCSV(ActionEvent): void&lt;br/&gt;- handleCategorySelection(ArrayList&amp;lt;BookIssue&amp;gt;, Button, int): void&lt;br/&gt;- updateForUser(): void&lt;br/&gt;- createLabel(String, double, double, double, double): Label&lt;/p&gt;" style="verticalAlign=top;align=left;overflow=fill;fontSize=14;fontFamily=Helvetica;html=1;rounded=0;shadow=0;comic=0;labelBackgroundColor=none;strokeWidth=1;">
      <mxGeometry x="634" y="1600" width="549" height="617" as="geometry" />
    </mxCell>
    <mxCell id="node9" parent="1" vertex="1" value="&lt;p style=&quot;margin:0px;margin-top:4px;text-align:center;&quot;&gt;&lt;b&gt;BookIssueDB&lt;/b&gt;&lt;/p&gt;&lt;hr size=&quot;1&quot;/&gt;&lt;p style=&quot;margin:0 0 0 4px;line-height:1.6;&quot;&gt;+ BookIssueDB(): &lt;/p&gt;&lt;hr size=&quot;1&quot;/&gt;&lt;p style=&quot;margin:0 0 0 4px;line-height:1.6;&quot;&gt;+ deleteReturned(BookIssue): void&lt;br/&gt;+ getPendingListByUserId(int): ArrayList&amp;lt;BookIssue&amp;gt;&lt;br/&gt;+ getBorrowedListByUserId(int): ArrayList&amp;lt;BookIssue&amp;gt;&lt;br/&gt;+ getTotalListByUserId(int): ArrayList&amp;lt;BookIssue&amp;gt;&lt;br/&gt;+ getDelayListByUserId(int): ArrayList&amp;lt;BookIssue&amp;gt;&lt;br/&gt;+ getReturnedListByUserId(int): ArrayList&amp;lt;BookIssue&amp;gt;&lt;br/&gt;+ getLateListByUserId(int): ArrayList&amp;lt;BookIssue&amp;gt;&lt;/p&gt;&lt;hr size=&quot;1&quot;/&gt;&lt;p style=&quot;margin:0 0 0 4px;line-height:1.6;&quot;&gt; delayList: ArrayList&amp;lt;BookIssue&amp;gt;&lt;br/&gt; borrowedList: ArrayList&amp;lt;BookIssue&amp;gt;&lt;br/&gt; pendingList: ArrayList&amp;lt;BookIssue&amp;gt;&lt;br/&gt; totalList: ArrayList&amp;lt;BookIssue&amp;gt;&lt;br/&gt; lateList: ArrayList&amp;lt;BookIssue&amp;gt;&lt;br/&gt; returnedList: ArrayList&amp;lt;BookIssue&amp;gt;&lt;/p&gt;" style="verticalAlign=top;align=left;overflow=fill;fontSize=14;fontFamily=Helvetica;html=1;rounded=0;shadow=0;comic=0;labelBackgroundColor=none;strokeWidth=1;">
      <mxGeometry x="991" y="2661" width="375" height="382" as="geometry" />
    </mxCell>
    <mxCell id="node11" parent="1" vertex="1" value="&lt;p style=&quot;margin:0px;margin-top:4px;text-align:center;&quot;&gt;&lt;b&gt;BookServices&lt;/b&gt;&lt;/p&gt;&lt;hr size=&quot;1&quot;/&gt;&lt;p style=&quot;margin:0 0 0 4px;line-height:1.6;&quot;&gt;- BookServices(): &lt;/p&gt;&lt;hr size=&quot;1&quot;/&gt;&lt;p style=&quot;margin:0 0 0 4px;line-height:1.6;&quot;&gt;- instance: BookServices&lt;/p&gt;&lt;hr size=&quot;1&quot;/&gt;&lt;p style=&quot;margin:0 0 0 4px;line-height:1.6;&quot;&gt;+ searchBooksByTitle(String): ArrayList&amp;lt;Book&amp;gt;&lt;br/&gt;+ generateQRCode(String): Image&lt;br/&gt;+ loadBook(JsonObject): ArrayList&amp;lt;Book&amp;gt;&lt;br/&gt;+ searchBooksByCategory(String): ArrayList&amp;lt;Book&amp;gt;&lt;br/&gt;+ searchBooksByAuthor(String): ArrayList&amp;lt;Book&amp;gt;&lt;/p&gt;&lt;hr size=&quot;1&quot;/&gt;&lt;p style=&quot;margin:0 0 0 4px;line-height:1.6;&quot;&gt; instance: BookServices&lt;/p&gt;" style="verticalAlign=top;align=left;overflow=fill;fontSize=14;fontFamily=Helvetica;html=1;rounded=0;shadow=0;comic=0;labelBackgroundColor=none;strokeWidth=1;">
      <mxGeometry x="1106" y="567" width="355" height="243" as="geometry" />
    </mxCell>
    <mxCell id="node18" parent="1" vertex="1" value="&lt;p style=&quot;margin:0px;margin-top:4px;text-align:center;&quot;&gt;&lt;b&gt;BookViewDetailController&lt;/b&gt;&lt;/p&gt;&lt;hr size=&quot;1&quot;/&gt;&lt;p style=&quot;margin:0 0 0 4px;line-height:1.6;&quot;&gt;+ BookViewDetailController(): &lt;/p&gt;&lt;hr size=&quot;1&quot;/&gt;&lt;p style=&quot;margin:0 0 0 4px;line-height:1.6;&quot;&gt;+ apiMode: boolean&lt;br/&gt;- returnSearchBook: Button&lt;/p&gt;&lt;hr size=&quot;1&quot;/&gt;&lt;p style=&quot;margin:0 0 0 4px;line-height:1.6;&quot;&gt;+ editBook(ActionEvent): void&lt;br/&gt;+ initialize(Book): void&lt;br/&gt;+ rentBook(ActionEvent): void&lt;br/&gt;+ saveEditBook(ActionEvent): void&lt;br/&gt;~ update(): void&lt;br/&gt;+ addBook(ActionEvent): void&lt;br/&gt;+ removeBook(ActionEvent): void&lt;/p&gt;&lt;hr size=&quot;1&quot;/&gt;&lt;p style=&quot;margin:0 0 0 4px;line-height:1.6;&quot;&gt; apiMode: boolean&lt;br/&gt; returnSearchBook: Button&lt;/p&gt;" style="verticalAlign=top;align=left;overflow=fill;fontSize=14;fontFamily=Helvetica;html=1;rounded=0;shadow=0;comic=0;labelBackgroundColor=none;strokeWidth=1;">
      <mxGeometry x="1113" y="1201" width="248" height="339" as="geometry" />
    </mxCell>
    <mxCell id="node3" parent="1" vertex="1" value="&lt;p style=&quot;margin:0px;margin-top:4px;text-align:center;&quot;&gt;&lt;b&gt;BorrowRequest&lt;/b&gt;&lt;/p&gt;&lt;hr size=&quot;1&quot;/&gt;&lt;p style=&quot;margin:0 0 0 4px;line-height:1.6;&quot;&gt;+ BorrowRequest(): &lt;br/&gt;+ BorrowRequest(int, int, String, String, String, MyDateTime, MyDateTime, int): &lt;/p&gt;&lt;hr size=&quot;1&quot;/&gt;&lt;p style=&quot;margin:0 0 0 4px;line-height:1.6;&quot;&gt;- accepted: int&lt;br/&gt;- id: int&lt;/p&gt;&lt;hr size=&quot;1&quot;/&gt;&lt;p style=&quot;margin:0 0 0 4px;line-height:1.6;&quot;&gt;+ isAccepted(): int&lt;br/&gt;+ toString(): String&lt;/p&gt;&lt;hr size=&quot;1&quot;/&gt;&lt;p style=&quot;margin:0 0 0 4px;line-height:1.6;&quot;&gt; accepted: int&lt;br/&gt; id: int&lt;/p&gt;" style="verticalAlign=top;align=left;overflow=fill;fontSize=14;fontFamily=Helvetica;html=1;rounded=0;shadow=0;comic=0;labelBackgroundColor=none;strokeWidth=1;">
      <mxGeometry x="1449" y="1242" width="419" height="243" as="geometry" />
    </mxCell>
    <mxCell id="node19" parent="1" vertex="1" value="&lt;p style=&quot;margin:0px;margin-top:4px;text-align:center;&quot;&gt;&lt;b&gt;ChartController&lt;/b&gt;&lt;/p&gt;&lt;hr size=&quot;1&quot;/&gt;&lt;p style=&quot;margin:0 0 0 4px;line-height:1.6;&quot;&gt;+ ChartController(): &lt;/p&gt;&lt;hr size=&quot;1&quot;/&gt;&lt;p style=&quot;margin:0 0 0 4px;line-height:1.6;&quot;&gt;+ updateLoginCount(String): void&lt;/p&gt;&lt;hr size=&quot;1&quot;/&gt;&lt;p style=&quot;margin:0 0 0 4px;line-height:1.6;&quot;&gt; pieChartData: ObservableList&amp;lt;Data&amp;gt;&lt;br/&gt; loginData: ObservableList&amp;lt;Data&amp;lt;String, Number&amp;gt;&amp;gt;&lt;/p&gt;" style="verticalAlign=top;align=left;overflow=fill;fontSize=14;fontFamily=Helvetica;html=1;rounded=0;shadow=0;comic=0;labelBackgroundColor=none;strokeWidth=1;">
      <mxGeometry x="495" y="959" width="362" height="142" as="geometry" />
    </mxCell>
    <mxCell id="node27" parent="1" vertex="1" value="&lt;p style=&quot;margin:0px;margin-top:4px;text-align:center;&quot;&gt;&lt;b&gt;CustomData&lt;/b&gt;&lt;/p&gt;&lt;hr size=&quot;1&quot;/&gt;&lt;p style=&quot;margin:0 0 0 4px;line-height:1.6;&quot;&gt;+ CustomData(String, String, String, String): &lt;/p&gt;&lt;hr size=&quot;1&quot;/&gt;&lt;p style=&quot;margin:0 0 0 4px;line-height:1.6;&quot;&gt;- fourth: String&lt;br/&gt;- second: String&lt;br/&gt;- third: String&lt;br/&gt;- first: String&lt;/p&gt;&lt;hr size=&quot;1&quot;/&gt;&lt;p style=&quot;margin:0 0 0 4px;line-height:1.6;&quot;&gt;+ setthird(String): void&lt;br/&gt;+ print(): void&lt;/p&gt;&lt;hr size=&quot;1&quot;/&gt;&lt;p style=&quot;margin:0 0 0 4px;line-height:1.6;&quot;&gt; fourth: String&lt;br/&gt; second: String&lt;br/&gt; first: String&lt;br/&gt; third: String&lt;/p&gt;" style="verticalAlign=top;align=left;overflow=fill;fontSize=14;fontFamily=Helvetica;html=1;rounded=0;shadow=0;comic=0;labelBackgroundColor=none;strokeWidth=1;">
      <mxGeometry x="94" y="2725" width="310" height="315" as="geometry" />
    </mxCell>
    <mxCell id="node26" parent="1" vertex="1" value="&lt;p style=&quot;margin:0px;margin-top:4px;text-align:center;&quot;&gt;&lt;b&gt;DBInfo&lt;/b&gt;&lt;/p&gt;&lt;hr size=&quot;1&quot;/&gt;&lt;p style=&quot;margin:0 0 0 4px;line-height:1.6;&quot;&gt;+ DBInfo(): &lt;/p&gt;&lt;hr size=&quot;1&quot;/&gt;&lt;p style=&quot;margin:0 0 0 4px;line-height:1.6;&quot;&gt;+ addAuthor(String): void&lt;br/&gt;+ updView(Book): void&lt;br/&gt;+ addPublisher(String): void&lt;br/&gt;+ getCommentList(String): ArrayList&amp;lt;CustomData&amp;gt;&lt;br/&gt;+ addCategory(String): void&lt;br/&gt;+ updateEmail(int, String): void&lt;br/&gt;+ findName(int): String&lt;br/&gt;+ unBan(User): void&lt;br/&gt;+ deleteAuthor(String): void&lt;br/&gt;+ getDistinctValues(String, String): ArrayList&amp;lt;String&amp;gt;&lt;br/&gt;+ deleteComment(String, String): void&lt;br/&gt;+ deleteOneNotification(Notification): void&lt;br/&gt;+ getBook(String): Book?&lt;br/&gt;+ updateUser(int, String, String, String, String, String, String, String, String, Integer): void&lt;br/&gt;+ getOverdueAndUpcoming(int): Pair&amp;lt;Integer, Integer&amp;gt;&lt;br/&gt;+ getBorrowedBookList(int): ArrayList&amp;lt;Pair&amp;lt;Book, MyDateTime&amp;gt;&amp;gt;&lt;br/&gt;+ countOverdue(): int&lt;br/&gt;+ addComment(String, String): void&lt;br/&gt;+ rateBook(String, int): void&lt;br/&gt;+ deleteCategory(String): void&lt;br/&gt;+ findUserId(String, String): int&lt;br/&gt;+ conn(): Connection&lt;br/&gt;+ deleteBook(Book): void&lt;br/&gt;+ deleteNotificationsByUserId(int): void&lt;br/&gt;+ checkPass(String, String): boolean&lt;br/&gt;+ findUserType(String, String): String&lt;br/&gt;+ login(String, String): void&lt;br/&gt;+ borrowBook(String, int): void&lt;br/&gt;+ checkUnique(String): boolean&lt;br/&gt;+ getNotificationsByUserId(int): ArrayList&amp;lt;Notification&amp;gt;&lt;br/&gt;+ sendNotification(int, int, String): void&lt;br/&gt;+ getBookList(String, String, String): ArrayList&amp;lt;Book&amp;gt;&lt;br/&gt;+ countUser(): int&lt;br/&gt;+ main(String[]): void&lt;br/&gt;+ addBook(Book): void&lt;br/&gt;+ acceptBorrowRequest(int, String): void&lt;br/&gt;+ returnBook(String, int): void&lt;br/&gt;+ deletePublisher(String): void&lt;br/&gt;+ inDb(String): boolean&lt;br/&gt;+ getString(String, String, String): String&lt;br/&gt;+ isUsernameExists(String): boolean&lt;br/&gt;+ getValue(String): Vector&amp;lt;String&amp;gt;&lt;br/&gt;+ NotificationFromSystem(): void&lt;br/&gt;+ addBorrowRequest(String, int): void&lt;br/&gt;+ getAuthor(String): String&lt;br/&gt;+ updateUser(int, String, String, String, String): void&lt;br/&gt;+ countBorrowed(): int&lt;br/&gt;+ getPassword(String): String&lt;br/&gt;+ allBooks(): void&lt;br/&gt;+ DeleteUser(String): void&lt;br/&gt;+ addSlip(String, int): void&lt;br/&gt;+ denyBorrowRequest(int, String): void&lt;br/&gt;+ getUser(String): User&lt;br/&gt;+ editBook(Book, String, String, String, String, String, String, String): void&lt;br/&gt;+ Register(int, String, String, String, String, String): void&lt;br/&gt;+ getUserById(int): User&lt;br/&gt;+ ban(User): void&lt;/p&gt;&lt;hr size=&quot;1&quot;/&gt;&lt;p style=&quot;margin:0 0 0 4px;line-height:1.6;&quot;&gt; userList: ArrayList&amp;lt;User&amp;gt;&lt;br/&gt; categoryData: ArrayList&amp;lt;Pair&amp;lt;String, Integer&amp;gt;&amp;gt;&lt;br/&gt; bookListByNumView: ArrayList&amp;lt;Book&amp;gt;&lt;br/&gt; bookCount: int&lt;br/&gt; userCount: int&lt;/p&gt;" style="verticalAlign=top;align=left;overflow=fill;fontSize=14;fontFamily=Helvetica;html=1;rounded=0;shadow=0;comic=0;labelBackgroundColor=none;strokeWidth=1;">
      <mxGeometry x="209" y="3566" width="444" height="1558" as="geometry" />
    </mxCell>
    <mxCell id="node24" parent="1" vertex="1" value="&lt;p style=&quot;margin:0px;margin-top:4px;text-align:center;&quot;&gt;&lt;b&gt;DashBoardController&lt;/b&gt;&lt;/p&gt;&lt;hr size=&quot;1&quot;/&gt;&lt;p style=&quot;margin:0 0 0 4px;line-height:1.6;&quot;&gt;+ DashBoardController(): &lt;/p&gt;&lt;hr size=&quot;1&quot;/&gt;&lt;p style=&quot;margin:0 0 0 4px;line-height:1.6;&quot;&gt;- addBookButton: Button&lt;br/&gt;- seeAllBook: Button&lt;/p&gt;&lt;hr size=&quot;1&quot;/&gt;&lt;p style=&quot;margin:0 0 0 4px;line-height:1.6;&quot;&gt;- getPercentage(Data): String&lt;br/&gt;+ updateCurrentTime(): void&lt;br/&gt;+ initialize(): void&lt;br/&gt;- startClock(): void&lt;/p&gt;&lt;hr size=&quot;1&quot;/&gt;&lt;p style=&quot;margin:0 0 0 4px;line-height:1.6;&quot;&gt; seeAllBook: Button&lt;br/&gt; addBookButton: Button&lt;/p&gt;" style="verticalAlign=top;align=left;overflow=fill;fontSize=14;fontFamily=Helvetica;html=1;rounded=0;shadow=0;comic=0;labelBackgroundColor=none;strokeWidth=1;">
      <mxGeometry x="1248" y="1737" width="220" height="267" as="geometry" />
    </mxCell>
    <mxCell id="node2" parent="1" vertex="1" value="&lt;p style=&quot;margin:0px;margin-top:4px;text-align:center;&quot;&gt;&lt;b&gt;EmailSender&lt;/b&gt;&lt;/p&gt;&lt;hr size=&quot;1&quot;/&gt;&lt;p style=&quot;margin:0 0 0 4px;line-height:1.6;&quot;&gt;+ EmailSender(): &lt;/p&gt;&lt;hr size=&quot;1&quot;/&gt;&lt;p style=&quot;margin:0 0 0 4px;line-height:1.6;&quot;&gt;+ sendEmail(String, String, String): void&lt;br/&gt;+ main(String[]): void&lt;/p&gt;" style="verticalAlign=top;align=left;overflow=fill;fontSize=14;fontFamily=Helvetica;html=1;rounded=0;shadow=0;comic=0;labelBackgroundColor=none;strokeWidth=1;">
      <mxGeometry x="1062" y="92" width="278" height="122" as="geometry" />
    </mxCell>
    <mxCell id="node21" parent="1" vertex="1" value="&lt;p style=&quot;margin:0px;margin-top:4px;text-align:center;&quot;&gt;&lt;b&gt;Filter&lt;/b&gt;&lt;/p&gt;&lt;hr size=&quot;1&quot;/&gt;&lt;p style=&quot;margin:0 0 0 4px;line-height:1.6;&quot;&gt;- Filter(): &lt;/p&gt;&lt;hr size=&quot;1&quot;/&gt;&lt;p style=&quot;margin:0 0 0 4px;line-height:1.6;&quot;&gt;- instance: Filter&lt;/p&gt;&lt;hr size=&quot;1&quot;/&gt;&lt;p style=&quot;margin:0 0 0 4px;line-height:1.6;&quot;&gt;+ getBookByCategorySubstr(String): ArrayList&amp;lt;Book&amp;gt;&lt;br/&gt;+ getBookByTitleSubstr(String): ArrayList&amp;lt;Book&amp;gt;&lt;br/&gt;+ getUserList(String): ArrayList&amp;lt;User&amp;gt;&lt;br/&gt;+ getBookByAuthorSubstr(String): ArrayList&amp;lt;Book&amp;gt;&lt;br/&gt;+ getUserBySubstr(String, String): ArrayList&amp;lt;User&amp;gt;&lt;/p&gt;&lt;hr size=&quot;1&quot;/&gt;&lt;p style=&quot;margin:0 0 0 4px;line-height:1.6;&quot;&gt; instance: Filter&lt;/p&gt;" style="verticalAlign=top;align=left;overflow=fill;fontSize=14;fontFamily=Helvetica;html=1;rounded=0;shadow=0;comic=0;labelBackgroundColor=none;strokeWidth=1;">
      <mxGeometry x="296" y="596" width="368" height="243" as="geometry" />
    </mxCell>
    <mxCell id="node31" parent="1" vertex="1" value="&lt;p style=&quot;margin:0px;margin-top:4px;text-align:center;&quot;&gt;&lt;b&gt;ForgetPassword&lt;/b&gt;&lt;/p&gt;&lt;hr size=&quot;1&quot;/&gt;&lt;p style=&quot;margin:0 0 0 4px;line-height:1.6;&quot;&gt;+ ForgetPassword(): &lt;/p&gt;&lt;hr size=&quot;1&quot;/&gt;&lt;p style=&quot;margin:0 0 0 4px;line-height:1.6;&quot;&gt;- randomPassword(): String&lt;br/&gt;+ SendEmail(): void&lt;br/&gt;+ initialize(): void&lt;/p&gt;" style="verticalAlign=top;align=left;overflow=fill;fontSize=14;fontFamily=Helvetica;html=1;rounded=0;shadow=0;comic=0;labelBackgroundColor=none;strokeWidth=1;">
      <mxGeometry x="64" y="92" width="207" height="148" as="geometry" />
    </mxCell>
    <mxCell id="node1" parent="1" vertex="1" value="&lt;p style=&quot;margin:0px;margin-top:4px;text-align:center;&quot;&gt;&lt;b&gt;LibraryManagementSystem&lt;/b&gt;&lt;/p&gt;&lt;hr size=&quot;1&quot;/&gt;&lt;p style=&quot;margin:0 0 0 4px;line-height:1.6;&quot;&gt;+ LibraryManagementSystem(): &lt;/p&gt;&lt;hr size=&quot;1&quot;/&gt;&lt;p style=&quot;margin:0 0 0 4px;line-height:1.6;&quot;&gt;+ start(Stage): void&lt;br/&gt;+ main(String[]): void&lt;/p&gt;" style="verticalAlign=top;align=left;overflow=fill;fontSize=14;fontFamily=Helvetica;html=1;rounded=0;shadow=0;comic=0;labelBackgroundColor=none;strokeWidth=1;">
      <mxGeometry x="1254" y="280" width="232" height="122" as="geometry" />
    </mxCell>
    <mxCell id="node5" parent="1" vertex="1" value="&lt;p style=&quot;margin:0px;margin-top:4px;text-align:center;&quot;&gt;&lt;b&gt;LoadingController&lt;/b&gt;&lt;/p&gt;&lt;hr size=&quot;1&quot;/&gt;&lt;p style=&quot;margin:0 0 0 4px;line-height:1.6;&quot;&gt;+ LoadingController(): &lt;/p&gt;&lt;hr size=&quot;1&quot;/&gt;&lt;p style=&quot;margin:0 0 0 4px;line-height:1.6;&quot;&gt;+ loadingLabel: Label&lt;/p&gt;&lt;hr size=&quot;1&quot;/&gt;&lt;p style=&quot;margin:0 0 0 4px;line-height:1.6;&quot;&gt;+ initialize(): void&lt;/p&gt;&lt;hr size=&quot;1&quot;/&gt;&lt;p style=&quot;margin:0 0 0 4px;line-height:1.6;&quot;&gt; loadingLabel: Label&lt;/p&gt;" style="verticalAlign=top;align=left;overflow=fill;fontSize=14;fontFamily=Helvetica;html=1;rounded=0;shadow=0;comic=0;labelBackgroundColor=none;strokeWidth=1;">
      <mxGeometry x="965" y="285" width="173" height="147" as="geometry" />
    </mxCell>
    <mxCell id="node23" parent="1" vertex="1" value="&lt;p style=&quot;margin:0px;margin-top:4px;text-align:center;&quot;&gt;&lt;b&gt;LoginController&lt;/b&gt;&lt;/p&gt;&lt;hr size=&quot;1&quot;/&gt;&lt;p style=&quot;margin:0 0 0 4px;line-height:1.6;&quot;&gt;+ LoginController(): &lt;/p&gt;&lt;hr size=&quot;1&quot;/&gt;&lt;p style=&quot;margin:0 0 0 4px;line-height:1.6;&quot;&gt;+ loginParent: AnchorPane&lt;/p&gt;&lt;hr size=&quot;1&quot;/&gt;&lt;p style=&quot;margin:0 0 0 4px;line-height:1.6;&quot;&gt;+ initialize(URL, ResourceBundle): void&lt;br/&gt;+ login(): void&lt;br/&gt;- openSignIn(ActionEvent): void&lt;br/&gt;- openSignUp(ActionEvent): void&lt;/p&gt;&lt;hr size=&quot;1&quot;/&gt;&lt;p style=&quot;margin:0 0 0 4px;line-height:1.6;&quot;&gt; loginParent: AnchorPane&lt;/p&gt;" style="verticalAlign=top;align=left;overflow=fill;fontSize=14;fontFamily=Helvetica;html=1;rounded=0;shadow=0;comic=0;labelBackgroundColor=none;strokeWidth=1;">
      <mxGeometry x="410" y="5" width="273" height="219" as="geometry" />
    </mxCell>
    <mxCell id="node8" parent="1" vertex="1" value="&lt;p style=&quot;margin:0px;margin-top:4px;text-align:center;&quot;&gt;&lt;b&gt;MainGUI&lt;/b&gt;&lt;/p&gt;&lt;hr size=&quot;1&quot;/&gt;&lt;p style=&quot;margin:0 0 0 4px;line-height:1.6;&quot;&gt;+ MainGUI(): &lt;/p&gt;&lt;hr size=&quot;1&quot;/&gt;&lt;p style=&quot;margin:0 0 0 4px;line-height:1.6;&quot;&gt;+ currentUser: User&lt;/p&gt;&lt;hr size=&quot;1&quot;/&gt;&lt;p style=&quot;margin:0 0 0 4px;line-height:1.6;&quot;&gt;- update(): void&lt;br/&gt;~ updateNotifications(): void&lt;br/&gt;- returnHome(): void&lt;br/&gt;+ returnBookIssue(ActionEvent): void&lt;br/&gt;- fadeAnimation(): void&lt;br/&gt;- minimze(): void&lt;br/&gt;+ closePopUp(ActionEvent): void&lt;br/&gt;+ sendNotification(int, int, String): void&lt;br/&gt;+ Loading(String): void&lt;br/&gt;+ initialize(URL, ResourceBundle): void&lt;br/&gt;- reset(): void&lt;br/&gt;+ logout(ActionEvent): void&lt;br/&gt;+ returnDetailBook(Book, boolean): void&lt;br/&gt;+ returnNontifications(ActionEvent): void&lt;br/&gt;+ returnSetting(ActionEvent): void&lt;br/&gt;- bookView(): void&lt;br/&gt;- userView(): void&lt;br/&gt;- updateProgressLabel(Task&amp;lt;ArrayList&amp;lt;Book&amp;gt;&amp;gt;): void&lt;br/&gt;- turnOnLoading(): void&lt;br/&gt;+ setPreviousStage(boolean, String): void&lt;br/&gt;- close(): void&lt;/p&gt;&lt;hr size=&quot;1&quot;/&gt;&lt;p style=&quot;margin:0 0 0 4px;line-height:1.6;&quot;&gt; currentUser: User&lt;/p&gt;" style="verticalAlign=top;align=left;overflow=fill;fontSize=14;fontFamily=Helvetica;html=1;rounded=0;shadow=0;comic=0;labelBackgroundColor=none;strokeWidth=1;">
      <mxGeometry x="1135" y="3889" width="372" height="627" as="geometry" />
    </mxCell>
    <mxCell id="node17" parent="1" vertex="1" value="&lt;p style=&quot;margin:0px;margin-top:4px;text-align:center;&quot;&gt;&lt;b&gt;MyDateTime&lt;/b&gt;&lt;/p&gt;&lt;hr size=&quot;1&quot;/&gt;&lt;p style=&quot;margin:0 0 0 4px;line-height:1.6;&quot;&gt;+ MyDateTime(LocalDateTime): &lt;/p&gt;&lt;hr size=&quot;1&quot;/&gt;&lt;p style=&quot;margin:0 0 0 4px;line-height:1.6;&quot;&gt;- dateTime: LocalDateTime&lt;/p&gt;&lt;hr size=&quot;1&quot;/&gt;&lt;p style=&quot;margin:0 0 0 4px;line-height:1.6;&quot;&gt;+ toString(): String&lt;br/&gt;+ main(String[]): void&lt;br/&gt;+ toLocalDateTime(): LocalDateTime&lt;br/&gt;+ compareTo(MyDateTime): int&lt;/p&gt;&lt;hr size=&quot;1&quot;/&gt;&lt;p style=&quot;margin:0 0 0 4px;line-height:1.6;&quot;&gt; dateTime: LocalDateTime&lt;/p&gt;" style="verticalAlign=top;align=left;overflow=fill;fontSize=14;fontFamily=Helvetica;html=1;rounded=0;shadow=0;comic=0;labelBackgroundColor=none;strokeWidth=1;">
      <mxGeometry x="745" y="-13" width="257" height="219" as="geometry" />
    </mxCell>
    <mxCell id="node22" parent="1" vertex="1" value="&lt;p style=&quot;margin:0px;margin-top:4px;text-align:center;&quot;&gt;&lt;b&gt;Notification&lt;/b&gt;&lt;/p&gt;&lt;hr size=&quot;1&quot;/&gt;&lt;p style=&quot;margin:0 0 0 4px;line-height:1.6;&quot;&gt;+ Notification(int, int, String): &lt;br/&gt;+ Notification(int, int, int, String, MyDateTime): &lt;/p&gt;&lt;hr size=&quot;1&quot;/&gt;&lt;p style=&quot;margin:0 0 0 4px;line-height:1.6;&quot;&gt;- id: int&lt;br/&gt;- receiverId: int&lt;br/&gt;- message: String&lt;br/&gt;- createdAt: MyDateTime&lt;br/&gt;- senderId: int&lt;/p&gt;&lt;hr size=&quot;1&quot;/&gt;&lt;p style=&quot;margin:0 0 0 4px;line-height:1.6;&quot;&gt;+ toString(): String&lt;/p&gt;&lt;hr size=&quot;1&quot;/&gt;&lt;p style=&quot;margin:0 0 0 4px;line-height:1.6;&quot;&gt; senderId: int&lt;br/&gt; receiver: String&lt;br/&gt; receiverId: int&lt;br/&gt; createdAt: MyDateTime&lt;br/&gt; message: String&lt;br/&gt; id: int&lt;/p&gt;" style="verticalAlign=top;align=left;overflow=fill;fontSize=14;fontFamily=Helvetica;html=1;rounded=0;shadow=0;comic=0;labelBackgroundColor=none;strokeWidth=1;">
      <mxGeometry x="716" y="4038" width="329" height="387" as="geometry" />
    </mxCell>
    <mxCell id="node12" parent="1" vertex="1" value="&lt;p style=&quot;margin:0px;margin-top:4px;text-align:center;&quot;&gt;&lt;b&gt;NotificationController&lt;/b&gt;&lt;/p&gt;&lt;hr size=&quot;1&quot;/&gt;&lt;p style=&quot;margin:0 0 0 4px;line-height:1.6;&quot;&gt;+ NotificationController(): &lt;/p&gt;&lt;hr size=&quot;1&quot;/&gt;&lt;p style=&quot;margin:0 0 0 4px;line-height:1.6;&quot;&gt;+ clearAllNoti(ActionEvent): void&lt;br/&gt;+ initialize(): void&lt;br/&gt;+ displayNotifications(): void&lt;br/&gt;- createNotificationPane(Notification): Pane&lt;/p&gt;" style="verticalAlign=top;align=left;overflow=fill;fontSize=14;fontFamily=Helvetica;html=1;rounded=0;shadow=0;comic=0;labelBackgroundColor=none;strokeWidth=1;">
      <mxGeometry x="479" y="1313" width="308" height="161" as="geometry" />
    </mxCell>
    <mxCell id="node29" parent="1" vertex="1" value="&lt;p style=&quot;margin:0px;margin-top:4px;text-align:center;&quot;&gt;&lt;b&gt;Pair&lt;K, V&gt;&lt;/b&gt;&lt;/p&gt;&lt;hr size=&quot;1&quot;/&gt;&lt;p style=&quot;margin:0 0 0 4px;line-height:1.6;&quot;&gt;+ Pair(K, V): &lt;/p&gt;&lt;hr size=&quot;1&quot;/&gt;&lt;p style=&quot;margin:0 0 0 4px;line-height:1.6;&quot;&gt;- value: V&lt;br/&gt;- key: K&lt;/p&gt;&lt;hr size=&quot;1&quot;/&gt;&lt;p style=&quot;margin:0 0 0 4px;line-height:1.6;&quot;&gt;+ toString(): String&lt;/p&gt;&lt;hr size=&quot;1&quot;/&gt;&lt;p style=&quot;margin:0 0 0 4px;line-height:1.6;&quot;&gt; value: V&lt;br/&gt; key: K&lt;/p&gt;" style="verticalAlign=top;align=left;overflow=fill;fontSize=14;fontFamily=Helvetica;html=1;rounded=0;shadow=0;comic=0;labelBackgroundColor=none;strokeWidth=1;">
      <mxGeometry x="234" y="293" width="149" height="195" as="geometry" />
    </mxCell>
    <mxCell id="node32" parent="1" vertex="1" value="&lt;p style=&quot;margin:0px;margin-top:4px;text-align:center;&quot;&gt;&lt;b&gt;ProcessIndicator&lt;/b&gt;&lt;/p&gt;&lt;hr size=&quot;1&quot;/&gt;&lt;p style=&quot;margin:0 0 0 4px;line-height:1.6;&quot;&gt;+ ProcessIndicator(): &lt;/p&gt;&lt;hr size=&quot;1&quot;/&gt;&lt;p style=&quot;margin:0 0 0 4px;line-height:1.6;&quot;&gt;- instance: ProcessIndicator&lt;/p&gt;&lt;hr size=&quot;1&quot;/&gt;&lt;p style=&quot;margin:0 0 0 4px;line-height:1.6;&quot;&gt;+ loadLoadingScreen(): Pane&lt;/p&gt;&lt;hr size=&quot;1&quot;/&gt;&lt;p style=&quot;margin:0 0 0 4px;line-height:1.6;&quot;&gt; instance: ProcessIndicator&lt;/p&gt;" style="verticalAlign=top;align=left;overflow=fill;fontSize=14;fontFamily=Helvetica;html=1;rounded=0;shadow=0;comic=0;labelBackgroundColor=none;strokeWidth=1;">
      <mxGeometry x="-56" y="307" width="212" height="147" as="geometry" />
    </mxCell>
    <mxCell id="node10" parent="1" vertex="1" value="&lt;p style=&quot;margin:0px;margin-top:4px;text-align:center;&quot;&gt;&lt;b&gt;SearchBookController&lt;/b&gt;&lt;/p&gt;&lt;hr size=&quot;1&quot;/&gt;&lt;p style=&quot;margin:0 0 0 4px;line-height:1.6;&quot;&gt;+ SearchBookController(): &lt;/p&gt;&lt;hr size=&quot;1&quot;/&gt;&lt;p style=&quot;margin:0 0 0 4px;line-height:1.6;&quot;&gt;+ apiMode(ActionEvent): void&lt;br/&gt;+ displayBooks(ArrayList&amp;lt;Book&amp;gt;): void&lt;br/&gt;- searchQuery(String): void&lt;br/&gt;+ searchBook(ActionEvent): void&lt;br/&gt;+ libraryMode(ActionEvent): void&lt;br/&gt;- update(): void&lt;br/&gt;+ initialize(): void&lt;/p&gt;" style="verticalAlign=top;align=left;overflow=fill;fontSize=14;fontFamily=Helvetica;html=1;rounded=0;shadow=0;comic=0;labelBackgroundColor=none;strokeWidth=1;">
      <mxGeometry x="299" y="1787" width="273" height="233" as="geometry" />
    </mxCell>
    <mxCell id="node20" parent="1" vertex="1" value="&lt;p style=&quot;margin:0px;margin-top:4px;text-align:center;&quot;&gt;&lt;b&gt;SearchingProgressing&lt;/b&gt;&lt;/p&gt;&lt;hr size=&quot;1&quot;/&gt;&lt;p style=&quot;margin:0 0 0 4px;line-height:1.6;&quot;&gt;- SearchingProgressing(): &lt;/p&gt;&lt;hr size=&quot;1&quot;/&gt;&lt;p style=&quot;margin:0 0 0 4px;line-height:1.6;&quot;&gt;- instance: SearchingProgressing&lt;/p&gt;&lt;hr size=&quot;1&quot;/&gt;&lt;p style=&quot;margin:0 0 0 4px;line-height:1.6;&quot;&gt;+ createProgressingVBox(): VBox&lt;/p&gt;&lt;hr size=&quot;1&quot;/&gt;&lt;p style=&quot;margin:0 0 0 4px;line-height:1.6;&quot;&gt; instance: SearchingProgressing&lt;/p&gt;" style="verticalAlign=top;align=left;overflow=fill;fontSize=14;fontFamily=Helvetica;html=1;rounded=0;shadow=0;comic=0;labelBackgroundColor=none;strokeWidth=1;">
      <mxGeometry x="608" y="298" width="242" height="147" as="geometry" />
    </mxCell>
    <mxCell id="node30" parent="1" vertex="1" value="&lt;p style=&quot;margin:0px;margin-top:4px;text-align:center;&quot;&gt;&lt;b&gt;SettingController&lt;/b&gt;&lt;/p&gt;&lt;hr size=&quot;1&quot;/&gt;&lt;p style=&quot;margin:0 0 0 4px;line-height:1.6;&quot;&gt;+ SettingController(): &lt;/p&gt;&lt;hr size=&quot;1&quot;/&gt;&lt;p style=&quot;margin:0 0 0 4px;line-height:1.6;&quot;&gt;+ seeNewPassword(ActionEvent): void&lt;br/&gt;+ editCoverImage(ActionEvent): void&lt;br/&gt;+ changePassword(ActionEvent): void&lt;br/&gt;+ seeConfirnPassword(ActionEvent): void&lt;br/&gt;- update(): void&lt;br/&gt;+ uiSetting(ActionEvent): void&lt;br/&gt;+ editAvatar(ActionEvent): void&lt;br/&gt;+ initialize(URL, ResourceBundle): void&lt;br/&gt;+ updateProfile(ActionEvent): void&lt;br/&gt;+ accountSetting(ActionEvent): void&lt;br/&gt;+ seeOldPasswod(ActionEvent): void&lt;/p&gt;" style="verticalAlign=top;align=left;overflow=fill;fontSize=14;fontFamily=Helvetica;html=1;rounded=0;shadow=0;comic=0;labelBackgroundColor=none;strokeWidth=1;">
      <mxGeometry x="-56" y="1735" width="294" height="329" as="geometry" />
    </mxCell>
    <mxCell id="node4" parent="1" vertex="1" value="&lt;p style=&quot;margin:0px;margin-top:4px;text-align:center;&quot;&gt;&lt;b&gt;SignInController&lt;/b&gt;&lt;/p&gt;&lt;hr size=&quot;1&quot;/&gt;&lt;p style=&quot;margin:0 0 0 4px;line-height:1.6;&quot;&gt;+ SignInController(): &lt;/p&gt;&lt;hr size=&quot;1&quot;/&gt;&lt;p style=&quot;margin:0 0 0 4px;line-height:1.6;&quot;&gt;+ initialize(URL, ResourceBundle): void&lt;br/&gt;- returnHome(): void&lt;br/&gt;- showAlert(String): void&lt;br/&gt;+ togglePasswordVisibility(ActionEvent): void&lt;br/&gt;+ login(): void&lt;/p&gt;" style="verticalAlign=top;align=left;overflow=fill;fontSize=14;fontFamily=Helvetica;html=1;rounded=0;shadow=0;comic=0;labelBackgroundColor=none;strokeWidth=1;">
      <mxGeometry x="1301" y="933" width="316" height="185" as="geometry" />
    </mxCell>
    <mxCell id="node13" parent="1" vertex="1" value="&lt;p style=&quot;margin:0px;margin-top:4px;text-align:center;&quot;&gt;&lt;b&gt;SignUpController&lt;/b&gt;&lt;/p&gt;&lt;hr size=&quot;1&quot;/&gt;&lt;p style=&quot;margin:0 0 0 4px;line-height:1.6;&quot;&gt;+ SignUpController(): &lt;/p&gt;&lt;hr size=&quot;1&quot;/&gt;&lt;p style=&quot;margin:0 0 0 4px;line-height:1.6;&quot;&gt;+ togglePasswordVisibility(ActionEvent): void&lt;br/&gt;- returnHome(): void&lt;br/&gt;+ initialize(URL, ResourceBundle): void&lt;br/&gt;- showAlert(String): void&lt;br/&gt;+ createNewAccount(ActionEvent): void&lt;br/&gt;+ login(): void&lt;/p&gt;" style="verticalAlign=top;align=left;overflow=fill;fontSize=14;fontFamily=Helvetica;html=1;rounded=0;shadow=0;comic=0;labelBackgroundColor=none;strokeWidth=1;">
      <mxGeometry x="917" y="909" width="316" height="209" as="geometry" />
    </mxCell>
    <mxCell id="node33" parent="1" vertex="1" value="&lt;p style=&quot;margin:0px;margin-top:4px;text-align:center;&quot;&gt;&lt;b&gt;ToggleSwitch&lt;/b&gt;&lt;/p&gt;&lt;hr size=&quot;1&quot;/&gt;&lt;p style=&quot;margin:0 0 0 4px;line-height:1.6;&quot;&gt;+ ToggleSwitch(): &lt;/p&gt;&lt;hr size=&quot;1&quot;/&gt;&lt;p style=&quot;margin:0 0 0 4px;line-height:1.6;&quot;&gt;+ switchedOnProperty(): BooleanProperty&lt;/p&gt;" style="verticalAlign=top;align=left;overflow=fill;fontSize=14;fontFamily=Helvetica;html=1;rounded=0;shadow=0;comic=0;labelBackgroundColor=none;strokeWidth=1;">
      <mxGeometry x="-147" y="4183" width="295" height="96" as="geometry" />
    </mxCell>
    <mxCell id="node14" parent="1" vertex="1" value="&lt;p style=&quot;margin:0px;margin-top:4px;text-align:center;&quot;&gt;&lt;b&gt;UISetting&lt;/b&gt;&lt;/p&gt;&lt;hr size=&quot;1&quot;/&gt;&lt;p style=&quot;margin:0 0 0 4px;line-height:1.6;&quot;&gt;- UISetting(): &lt;/p&gt;&lt;hr size=&quot;1&quot;/&gt;&lt;p style=&quot;margin:0 0 0 4px;line-height:1.6;&quot;&gt;- instance: UISetting&lt;br/&gt;- time24formatMode: boolean&lt;br/&gt;- darkMode: boolean&lt;br/&gt;- vietnameseMode: boolean&lt;/p&gt;&lt;hr size=&quot;1&quot;/&gt;&lt;p style=&quot;margin:0 0 0 4px;line-height:1.6;&quot;&gt; vietnameseMode: boolean&lt;br/&gt; time24formatMode: boolean&lt;br/&gt; vietNameseMode: boolean&lt;br/&gt; darkMode: boolean&lt;br/&gt; instance: UISetting&lt;/p&gt;" style="verticalAlign=top;align=left;overflow=fill;fontSize=14;fontFamily=Helvetica;html=1;rounded=0;shadow=0;comic=0;labelBackgroundColor=none;strokeWidth=1;">
      <mxGeometry x="776" y="563" width="222" height="286" as="geometry" />
    </mxCell>
    <mxCell id="node25" parent="1" vertex="1" value="&lt;p style=&quot;margin:0px;margin-top:4px;text-align:center;&quot;&gt;&lt;b&gt;User&lt;/b&gt;&lt;/p&gt;&lt;hr size=&quot;1&quot;/&gt;&lt;p style=&quot;margin:0 0 0 4px;line-height:1.6;&quot;&gt;+ User(): &lt;br/&gt;+ User(int, String, String, String, String): &lt;br/&gt;+ User(int, String, String, String, String, boolean, String): &lt;br/&gt;+ User(int, String, String, String, String, boolean, String, String, String, String, String, int): &lt;/p&gt;&lt;hr size=&quot;1&quot;/&gt;&lt;p style=&quot;margin:0 0 0 4px;line-height:1.6;&quot;&gt;- avatarLink: String&lt;br/&gt;- password: String&lt;br/&gt;- isBanned: boolean&lt;br/&gt;- name: String&lt;br/&gt;- coverPhotoLink: String&lt;br/&gt;- rentBook: ArrayList&amp;lt;Pair&amp;lt;Book, MyDateTime&amp;gt;&amp;gt;&lt;br/&gt;- username: String&lt;br/&gt;- MSV: String&lt;br/&gt;- reputation: int&lt;br/&gt;- id: int&lt;br/&gt;- phone: String&lt;br/&gt;- university: String&lt;br/&gt;- userType: String&lt;/p&gt;&lt;hr size=&quot;1&quot;/&gt;&lt;p style=&quot;margin:0 0 0 4px;line-height:1.6;&quot;&gt;+ denyBorrowRequest(BookIssue): void&lt;br/&gt;+ unBan(User): void&lt;br/&gt;+ deleteOneNotification(Notification): void&lt;br/&gt;+ traSach(Book): void&lt;br/&gt;+ reply(Notification, String): void&lt;br/&gt;+ sendNotification(User, String): void&lt;br/&gt;+ toString(): String&lt;br/&gt;+ acceptBorrowRequest(BookIssue): void&lt;br/&gt;+ update(String, String, String, String): void&lt;br/&gt;+ checkSach(Book): boolean&lt;br/&gt;+ sendNotification(int, String): void&lt;br/&gt;+ muonSach(Book): void&lt;br/&gt;+ deleteNotifications(): void&lt;br/&gt;+ ban(User): void&lt;br/&gt;+ update(String, String, String, String, String, String, String, String, Integer): void&lt;/p&gt;&lt;hr size=&quot;1&quot;/&gt;&lt;p style=&quot;margin:0 0 0 4px;line-height:1.6;&quot;&gt; phone: String&lt;br/&gt; upcoming: int&lt;br/&gt; avatarLink: String&lt;br/&gt; isBanned: boolean&lt;br/&gt; university: String&lt;br/&gt; coverPhotoLink: String&lt;br/&gt; overdue: int&lt;br/&gt; status: ObservableValue&amp;lt;String&amp;gt;&lt;br/&gt; rentBook: ArrayList&amp;lt;Pair&amp;lt;Book, MyDateTime&amp;gt;&amp;gt;&lt;br/&gt; name: String&lt;br/&gt; password: String&lt;br/&gt; userType: String&lt;br/&gt; notifications: ArrayList&amp;lt;Notification&amp;gt;&lt;br/&gt; id: int&lt;br/&gt; username: String&lt;br/&gt; reputation: int&lt;br/&gt; MSV: String&lt;/p&gt;" style="verticalAlign=top;align=left;overflow=fill;fontSize=14;fontFamily=Helvetica;html=1;rounded=0;shadow=0;comic=0;labelBackgroundColor=none;strokeWidth=1;">
      <mxGeometry x="523" y="2278" width="408" height="1227" as="geometry" />
    </mxCell>
    <mxCell id="node7" parent="1" vertex="1" value="&lt;p style=&quot;margin:0px;margin-top:4px;text-align:center;&quot;&gt;&lt;b&gt;UserController&lt;/b&gt;&lt;/p&gt;&lt;hr size=&quot;1&quot;/&gt;&lt;p style=&quot;margin:0 0 0 4px;line-height:1.6;&quot;&gt;+ UserController(): &lt;/p&gt;&lt;hr size=&quot;1&quot;/&gt;&lt;p style=&quot;margin:0 0 0 4px;line-height:1.6;&quot;&gt;- displayUser(): void&lt;br/&gt;+ cancelAdd(ActionEvent): void&lt;br/&gt;- update(): void&lt;br/&gt;+ initialize(): void&lt;br/&gt;+ addNewUser(ActionEvent): void&lt;br/&gt;- createUserPane(User, int): Pane&lt;br/&gt;+ viewAll(ActionEvent): void&lt;br/&gt;- removeSelectedUser(): void&lt;br/&gt;+ submitAdd(ActionEvent): void&lt;br/&gt;+ searchUser(ActionEvent): void&lt;br/&gt;+ viewUser(ActionEvent): void&lt;br/&gt;+ viewAdmin(ActionEvent): void&lt;br/&gt;+ exportCSV(ActionEvent): void&lt;/p&gt;" style="verticalAlign=top;align=left;overflow=fill;fontSize=14;fontFamily=Helvetica;html=1;rounded=0;shadow=0;comic=0;labelBackgroundColor=none;strokeWidth=1;">
      <mxGeometry x="168" y="1213" width="248" height="377" as="geometry" />
    </mxCell>
    <mxCell id="edge6" edge="1" value="" parent="1" source="node15" target="node28" style="html=1;rounded=1;edgeStyle=orthogonalEdgeStyle;dashed=0;startArrow=none;endArrow=block;endSize=12;strokeColor=#000082;exitX=0.500;exitY=0.000;exitDx=0;exitDy=0;entryX=1.000;entryY=0.500;entryDx=0;entryDy=0;">
      <mxGeometry width="50" height="50" relative="1" as="geometry">
        <Array as="points">
          <mxPoint x="909" y="1570" />
          <mxPoint x="450" y="1570" />
          <mxPoint x="450" y="1041" />
        </Array>
      </mxGeometry>
    </mxCell>
    <mxCell id="edge0" edge="1" value="" parent="1" source="node18" target="node28" style="html=1;rounded=1;edgeStyle=orthogonalEdgeStyle;dashed=0;startArrow=none;endArrow=block;endSize=12;strokeColor=#000082;exitX=0.500;exitY=1.000;exitDx=0;exitDy=0;entryX=1.000;entryY=0.500;entryDx=0;entryDy=0;">
      <mxGeometry width="50" height="50" relative="1" as="geometry">
        <Array as="points">
          <mxPoint x="1237" y="1570" />
          <mxPoint x="450" y="1570" />
          <mxPoint x="450" y="1041" />
        </Array>
      </mxGeometry>
    </mxCell>
    <mxCell id="edge7" edge="1" value="" parent="1" source="node3" target="node16" style="html=1;rounded=1;edgeStyle=orthogonalEdgeStyle;dashed=0;startArrow=none;endArrow=block;endSize=12;strokeColor=#000082;exitX=0.764;exitY=0.000;exitDx=0;exitDy=0;entryX=0.500;entryY=1.000;entryDx=0;entryDy=0;">
      <mxGeometry width="50" height="50" relative="1" as="geometry">
        <Array as="points" />
      </mxGeometry>
    </mxCell>
    <mxCell id="edge4" edge="1" value="" parent="1" source="node24" target="node28" style="html=1;rounded=1;edgeStyle=orthogonalEdgeStyle;dashed=0;startArrow=none;endArrow=block;endSize=12;strokeColor=#000082;exitX=0.500;exitY=0.000;exitDx=0;exitDy=0;entryX=1.000;entryY=0.500;entryDx=0;entryDy=0;">
      <mxGeometry width="50" height="50" relative="1" as="geometry">
        <Array as="points">
          <mxPoint x="1358" y="1570" />
          <mxPoint x="450" y="1570" />
          <mxPoint x="450" y="1041" />
        </Array>
      </mxGeometry>
    </mxCell>
    <mxCell id="edge1" edge="1" value="" parent="1" source="node12" target="node28" style="html=1;rounded=1;edgeStyle=orthogonalEdgeStyle;dashed=0;startArrow=none;endArrow=block;endSize=12;strokeColor=#000082;exitX=0.000;exitY=0.500;exitDx=0;exitDy=0;entryX=1.000;entryY=0.500;entryDx=0;entryDy=0;">
      <mxGeometry width="50" height="50" relative="1" as="geometry">
        <Array as="points">
          <mxPoint x="450" y="1394" />
          <mxPoint x="450" y="1041" />
        </Array>
      </mxGeometry>
    </mxCell>
    <mxCell id="edge2" edge="1" value="" parent="1" source="node10" target="node28" style="html=1;rounded=1;edgeStyle=orthogonalEdgeStyle;dashed=0;startArrow=none;endArrow=block;endSize=12;strokeColor=#000082;exitX=0.528;exitY=0.000;exitDx=0;exitDy=0;entryX=1.000;entryY=0.500;entryDx=0;entryDy=0;">
      <mxGeometry width="50" height="50" relative="1" as="geometry">
        <Array as="points">
          <mxPoint x="444" y="1570" />
          <mxPoint x="450" y="1570" />
          <mxPoint x="450" y="1041" />
        </Array>
      </mxGeometry>
    </mxCell>
    <mxCell id="edge3" edge="1" value="" parent="1" source="node30" target="node28" style="html=1;rounded=1;edgeStyle=orthogonalEdgeStyle;dashed=0;startArrow=none;endArrow=block;endSize=12;strokeColor=#000082;exitX=1.000;exitY=0.074;exitDx=0;exitDy=0;entryX=1.000;entryY=0.500;entryDx=0;entryDy=0;">
      <mxGeometry width="50" height="50" relative="1" as="geometry">
        <Array as="points">
          <mxPoint x="444" y="1760" />
          <mxPoint x="444" y="1570" />
          <mxPoint x="450" y="1570" />
          <mxPoint x="450" y="1041" />
        </Array>
      </mxGeometry>
    </mxCell>
    <mxCell id="edge8" edge="1" value="" parent="1" source="node33" target="node30" style="html=1;rounded=1;edgeStyle=orthogonalEdgeStyle;dashed=0;startArrow=circlePlus;startFill=0;endArrow=none;strokeColor=#820000;exitX=0.500;exitY=0.000;exitDx=0;exitDy=0;entryX=0.193;entryY=1.000;entryDx=0;entryDy=0;">
      <mxGeometry width="50" height="50" relative="1" as="geometry">
        <Array as="points" />
      </mxGeometry>
    </mxCell>
    <mxCell id="edge5" edge="1" value="" parent="1" source="node7" target="node28" style="html=1;rounded=1;edgeStyle=orthogonalEdgeStyle;dashed=0;startArrow=none;endArrow=block;endSize=12;strokeColor=#000082;exitX=1.000;exitY=0.500;exitDx=0;exitDy=0;entryX=1.000;entryY=0.500;entryDx=0;entryDy=0;">
      <mxGeometry width="50" height="50" relative="1" as="geometry">
        <Array as="points">
          <mxPoint x="450" y="1401" />
          <mxPoint x="450" y="1041" />
        </Array>
      </mxGeometry>
    </mxCell>
  </root>
</mxGraphModel>